<svg width="250" height="228" viewBox="0 0 250 228" fill="none" xmlns="http://www.w3.org/2000/svg">
<g clip-path="url(#clip0_6225_6397)">
<g opacity="0.8">
<rect x="16" y="16" width="94" height="16" rx="4" fill="#E6E6ED"/>
</g>
<g opacity="0.8">
<rect x="16" y="64" width="94" height="16" rx="4" fill="#E6E6ED"/>
</g>
<g opacity="0.8">
<rect x="16" y="40" width="25" height="16" rx="4" fill="#E6E6ED"/>
</g>
<g opacity="0.8">
<rect x="16" y="88" width="50" height="16" rx="4" fill="#E6E6ED"/>
</g>
<g opacity="0.8">
<rect x="118" y="16" width="41" height="16" rx="4" fill="#E6E6ED"/>
</g>
<g opacity="0.8">
<rect x="49" y="40" width="110" height="16" rx="4" fill="#E6E6ED"/>
</g>
<g opacity="0.8">
<rect x="75" y="88" width="84" height="16" rx="4" fill="#E6E6ED"/>
</g>
<g filter="url(#filter0_f_6225_6397)">
<rect x="68" y="43" width="113" height="141" fill="#CBCEDA"/>
</g>
<g style="mix-blend-mode:overlay" filter="url(#filter1_f_6225_6397)">
<circle cx="34" cy="36" r="68" fill="white" fill-opacity="0.7"/>
</g>
<rect x="70" y="44" width="110" height="140" rx="6" fill="white"/>
<rect x="86" y="58" width="78" height="8" rx="2" fill="#8175A8"/>
<rect x="86" y="70" width="30" height="8" rx="2" fill="#A197BE"/>
<rect x="86" y="106.268" width="30" height="8" rx="2" fill="#C0BAD3"/>
<rect x="120" y="106.268" width="44" height="8" rx="2" fill="#C0BAD3"/>
<rect x="120" y="70" width="44" height="8" rx="2" fill="#A197BE"/>
<rect x="86" y="82" width="20" height="8" rx="2" fill="#A197BE"/>
<rect x="110" y="82" width="54" height="8" rx="2" fill="#8175A8"/>
<rect x="86" y="94" width="54" height="8" rx="2" fill="#8175A8"/>
<rect x="86" y="155" width="24" height="8" rx="2" fill="#A197BE"/>
<rect x="86" y="167" width="66" height="8" rx="2" fill="#C0BAD3"/>
<rect x="144" y="94" width="20" height="8" rx="2" fill="#C0BAD3"/>
<rect x="114" y="155" width="50" height="8" rx="2" fill="#C0BAD3"/>
<rect x="86" y="118.268" width="78" height="32" rx="2" fill="#F1F2F4"/>
<path d="M127.628 142.266H109.679L118.986 128.933L127.628 142.266Z" fill="#CBCEDA"/>
<path opacity="0.5" d="M134.941 142.267H122.975L129.179 132.268L134.941 142.267Z" fill="#CBCEDA"/>
<ellipse cx="136.27" cy="128.933" rx="2.65909" ry="2.66656" fill="#CBCEDA"/>
<rect x="65" y="39" width="120" height="150" rx="11" stroke="white" stroke-opacity="0.5" stroke-width="10"/>
</g>
<defs>
<filter id="filter0_f_6225_6397" x="18" y="-7" width="213" height="241" filterUnits="userSpaceOnUse" color-interpolation-filters="sRGB">
<feFlood flood-opacity="0" result="BackgroundImageFix"/>
<feBlend mode="normal" in="SourceGraphic" in2="BackgroundImageFix" result="shape"/>
<feGaussianBlur stdDeviation="25" result="effect1_foregroundBlur_6225_6397"/>
</filter>
<filter id="filter1_f_6225_6397" x="-134" y="-132" width="336" height="336" filterUnits="userSpaceOnUse" color-interpolation-filters="sRGB">
<feFlood flood-opacity="0" result="BackgroundImageFix"/>
<feBlend mode="normal" in="SourceGraphic" in2="BackgroundImageFix" result="shape"/>
<feGaussianBlur stdDeviation="50" result="effect1_foregroundBlur_6225_6397"/>
</filter>
<clipPath id="clip0_6225_6397">
<rect width="250" height="228" rx="8" fill="white"/>
</clipPath>
</defs>
</svg>
