<svg width="48" height="48" viewBox="0 0 48 48" fill="none" xmlns="http://www.w3.org/2000/svg">
<rect x="0.5" y="0.5" width="47" height="47" rx="7.5" fill="white"/>
<path fill-rule="evenodd" clip-rule="evenodd" d="M39.9982 8.00293H17.9995C16.8949 8.00293 15.9995 8.89836 15.9995 10.0029V38.0012C15.9995 39.1057 16.8949 40.0012 17.9995 40.0012H37.9982C39.1028 40.0012 39.9982 39.1057 39.9982 38.0012V8.00293ZM32.1323 8.00358L39.9982 15.8695L39.9982 8.00293L32.1323 8.00358Z" fill="#E6E6ED"/>
<rect x="20.0005" y="19" width="16" height="2" rx="1" fill="#B2B5C5"/>
<rect x="20.0005" y="23" width="16" height="2" rx="1" fill="#B2B5C5"/>
<rect x="20.0005" y="27" width="16" height="2" rx="1" fill="#B2B5C5"/>
<path d="M32.1328 8L39.9987 15.8659L34.1328 15.8659C33.0282 15.8659 32.1328 14.9705 32.1328 13.8659L32.1328 8Z" fill="#B2B5C5"/>
<rect x="8" y="24" width="23.9987" height="12" rx="2" fill="#555C7A"/>
<path d="M10 27.0391V26H15.9554V27.0391H13.5544V34H12.3972V27.0391H10Z" fill="white"/>
<path d="M18.1321 26L19.9732 29.1289H20.0333L21.8744 26H23.2196L20.8224 30L23.2346 34H21.882L20.0333 30.9141H19.9732L18.1246 34H16.772L19.2255 30L16.787 26H18.1321Z" fill="white"/>
<path d="M24.0446 27.0391V26H30V27.0391H27.5991V34H26.4418V27.0391H24.0446Z" fill="white"/>
<rect x="0.5" y="0.5" width="47" height="47" rx="7.5" stroke="#E6E6ED"/>
</svg>
