<svg width="48" height="48" viewBox="0 0 48 48" fill="none" xmlns="http://www.w3.org/2000/svg">
<rect x="0.5" y="0.5" width="47" height="47" rx="7.5" fill="white"/>
<path fill-rule="evenodd" clip-rule="evenodd" d="M39.9982 8.00281H17.9995C16.8949 8.00281 15.9995 8.89824 15.9995 10.0028V38.0011C15.9995 39.1056 16.8949 40.0011 17.9995 40.0011H37.9982C39.1028 40.0011 39.9982 39.1056 39.9982 38.0011V8.00281ZM32.1323 8.00346L39.9982 15.8694L39.9982 8.00281L32.1323 8.00346Z" fill="#E6E6ED"/>
<path d="M32.1328 8L39.9987 15.8659L34.1328 15.8659C33.0282 15.8659 32.1328 14.9705 32.1328 13.8659L32.1328 8Z" fill="#B2B5C5"/>
<rect x="20.0005" y="18" width="16" height="2" rx="1" fill="#B2B5C5"/>
<rect x="25" y="22" width="11" height="2" rx="1" fill="#B2B5C5"/>
<rect x="26" y="26" width="10" height="2" rx="1" fill="#B2B5C5"/>
<rect x="26" y="30" width="10" height="2" rx="1" fill="#B2B5C5"/>
<path d="M10.2857 38H21.7143C22.9742 38 24 36.9235 24 35.6V28.4C24 27.0765 22.9742 26 21.7143 26H10.2857C9.02576 26 8 27.0765 8 28.4V35.6C8 36.9235 9.02576 38 10.2857 38Z" fill="#555C7A"/>
<path d="M16 28C15.4473 28 15 27.4627 15 26.8V23.2C15 22.5373 15.4473 22 16 22C16.5527 22 17 22.5373 17 23.2V26.8C17 27.4627 16.5527 28 16 28Z" fill="#555C7A"/>
<path d="M16 25C14.8975 25 14 24.1029 14 23C14 21.8971 14.8975 21 16 21C17.1025 21 18 21.8971 18 23C18 24.1029 17.1025 25 16 25Z" fill="#555C7A"/>
<path d="M15 31C15 32.1047 14.1044 33 13 33C11.8953 33 11 32.1047 11 31C11 29.8953 11.8953 29 13 29C14.1045 29 15 29.8953 15 31Z" fill="#F8F9FA"/>
<path d="M21 31C21 32.1047 20.1047 33 19 33C17.8955 33 17 32.1047 17 31C17 29.8953 17.8956 29 19 29C20.1047 29 21 29.8953 21 31Z" fill="#F8F9FA"/>
<rect x="0.5" y="0.5" width="47" height="47" rx="7.5" stroke="#E6E6ED"/>
</svg>
