<svg width="48" height="48" viewBox="0 0 48 48" fill="none" xmlns="http://www.w3.org/2000/svg">
<rect x="0.5" y="0.5" width="47" height="47" rx="7.5" fill="white"/>
<rect x="9" y="19" width="20" height="20" rx="10" fill="#555C7A"/>
<circle cx="20" cy="34" r="2" fill="#CBCEDA"/>
<circle cx="13.5" cy="29.5" r="1.5" fill="#CBCEDA"/>
<path d="M25.8765 12.9753C25.8765 14.0147 26.5188 14.9041 27.428 15.2683C27.3822 15.4844 27.358 15.7085 27.358 15.9383C27.358 17.711 28.7951 19.1481 30.5679 19.1481C30.6655 19.1481 30.7621 19.1438 30.8575 19.1353C31.3047 20.0217 32.2233 20.6296 33.284 20.6296C34.4135 20.6296 35.3821 19.9401 35.7915 18.9589C35.9282 19.6179 36 20.3006 36 21C36 26.5228 31.5228 31 26 31C20.4772 31 16 26.5228 16 21C16 15.4772 20.4772 11 26 11C26.2764 11 26.5501 11.0112 26.8208 11.0332C26.2458 11.4853 25.8765 12.1872 25.8765 12.9753Z" fill="#CBCEDA"/>
<circle cx="20.938" cy="17.9118" r="1.97531" fill="#555C7A"/>
<circle cx="28.3454" cy="25.3192" r="2.71605" fill="#555C7A"/>
<path d="M27.2975 15.2097C26.4579 14.8155 25.8765 13.9623 25.8765 12.9734C25.8765 12.4165 26.0609 11.9027 26.3719 11.4896L26.3706 11.4896C25.2796 11.4896 24.3953 12.374 24.3953 13.4649C24.3953 14.5559 25.2796 15.4402 26.3706 15.4402C26.7056 15.4402 27.0211 15.3568 27.2975 15.2097Z" fill="#555C7A"/>
<circle cx="21.679" cy="25.5674" r="1.48148" fill="#555C7A"/>
<rect x="0.5" y="0.5" width="47" height="47" rx="7.5" stroke="#E6E6ED"/>
</svg>
