<svg width="48" height="48" viewBox="0 0 48 48" fill="none" xmlns="http://www.w3.org/2000/svg">
<rect x="0.5" y="0.5" width="47" height="47" rx="7.5" fill="white"/>
<path d="M36 11.9998C36 10.8952 35.1046 9.99976 34 9.99976H14C12.8954 9.99976 12 10.8952 12 11.9998V36.9998C12 38.1043 12.8954 38.9998 14 38.9998H34C35.1046 38.9998 36 38.1043 36 36.9998V11.9998Z" fill="#E6E6ED"/>
<path d="M24 20C25.6575 20 27 18.6575 27 17C27 15.3425 25.6575 14 24 14C22.3425 14 21 15.3425 21 17C21 18.6575 22.3425 20 24 20ZM24 21.5C21.9975 21.5 18 22.505 18 24.5V25.25C18 25.6625 18.3375 26 18.75 26H29.25C29.6625 26 30 25.6625 30 25.25V24.5C30 22.505 26.0025 21.5 24 21.5Z" fill="#555C7A"/>
<rect x="16.0005" y="29" width="16" height="2" rx="1" fill="#B2B5C5"/>
<rect x="16" y="33.0002" width="16" height="2" rx="1" fill="#B2B5C5"/>
<rect x="0.5" y="0.5" width="47" height="47" rx="7.5" stroke="#E6E6ED"/>
</svg>
