<svg width="48" height="48" viewBox="0 0 48 48" fill="none" xmlns="http://www.w3.org/2000/svg">
<rect x="0.5" y="0.5" width="47" height="47" rx="7.5" fill="white"/>
<path d="M36 10.9998C36 9.89519 35.1046 8.99976 34 8.99976H14C12.8954 8.99976 12 9.89519 12 10.9998V35.9998C12 37.1043 12.8954 37.9998 14 37.9998H34C35.1046 37.9998 36 37.1043 36 35.9998V10.9998Z" fill="#E6E6ED"/>
<path fill-rule="evenodd" clip-rule="evenodd" d="M26.0005 7.99976C26.0005 6.89519 25.1051 5.99976 24.0005 5.99976C22.8959 5.99976 22.0005 6.89519 22.0005 7.99976H19C18.4477 7.99976 18 8.44747 18 8.99976V9.99976C18 10.552 18.4477 10.9998 19 10.9998H29C29.5523 10.9998 30 10.552 30 9.99976V8.99976C30 8.44747 29.5523 7.99976 29 7.99976H26.0005Z" fill="#B2B5C5"/>
<rect x="16.0005" y="13.9998" width="16" height="2" rx="1" fill="#B2B5C5"/>
<rect x="20" y="17.9998" width="12" height="2" rx="1" fill="#B2B5C5"/>
<rect x="24" y="21.9998" width="8" height="2" rx="1" fill="#B2B5C5"/>
<rect x="23" y="25.9998" width="9" height="2" rx="1" fill="#B2B5C5"/>
<rect x="22" y="29.9998" width="10" height="2" rx="1" fill="#B2B5C5"/>
<path d="M15 19L8 22.103V25.6909C8 29.9964 10.9867 34.0225 15 35C19.0133 34.0225 22 29.9964 22 25.6909V22.103L15 19Z" fill="#555C7A"/>
<path d="M19.5431 23.5479C19.2668 23.2021 18.7909 23.171 18.4801 23.4783L14.4372 27.476L12.4233 25.6838C12.0986 25.3948 11.6247 25.4534 11.365 25.8146C11.1052 26.1758 11.1578 26.7029 11.4826 26.9919L14.4883 29.6667L19.4806 24.7303C19.7914 24.423 19.8194 23.8936 19.5431 23.5479Z" fill="#F8F9FA"/>
<rect x="0.5" y="0.5" width="47" height="47" rx="7.5" stroke="#E6E6ED"/>
</svg>
