<svg width="48" height="48" viewBox="0 0 48 48" fill="none" xmlns="http://www.w3.org/2000/svg">
<rect x="0.5" y="0.5" width="47" height="47" rx="7.5" fill="white"/>
<path d="M36 10.9998C36 9.89519 35.1046 8.99976 34 8.99976H14C12.8954 8.99976 12 9.89519 12 10.9998V35.9998C12 37.1043 12.8954 37.9998 14 37.9998H34C35.1046 37.9998 36 37.1043 36 35.9998V10.9998Z" fill="#E6E6ED"/>
<path d="M26.0005 7.99976C26.0005 6.89519 25.1051 5.99976 24.0005 5.99976C22.8959 5.99976 22.0005 6.89519 22.0005 7.99976H19C18.4477 7.99976 18 8.44747 18 8.99976V9.99976C18 10.552 18.4477 10.9998 19 10.9998H29C29.5523 10.9998 30 10.552 30 9.99976V8.99976C30 8.44747 29.5523 7.99976 29 7.99976H26.0005Z" fill="#B2B5C5"/>
<rect x="16.0005" y="13.9998" width="16" height="2" rx="1" fill="#B2B5C5"/>
<rect x="19" y="17.9998" width="13" height="2" rx="1" fill="#B2B5C5"/>
<rect x="22" y="21.9998" width="10" height="2" rx="1" fill="#B2B5C5"/>
<rect x="22" y="25.9998" width="10" height="2" rx="1" fill="#B2B5C5"/>
<rect x="22" y="29.9998" width="10" height="2" rx="1" fill="#B2B5C5"/>
<path d="M19.375 24.6664H18.5625V23.0474C18.5625 20.8131 16.7425 18.9998 14.5 18.9998C12.2575 18.9998 10.4375 20.8131 10.4375 23.0474V24.6664H9.625C8.73125 24.6664 8 25.395 8 26.2855V34.3807C8 35.2712 8.73125 35.9998 9.625 35.9998H19.375C20.2688 35.9998 21 35.2712 21 34.3807V26.2855C21 25.395 20.2688 24.6664 19.375 24.6664ZM14.5 31.9521C13.6063 31.9521 12.875 31.2236 12.875 30.3331C12.875 29.4426 13.6063 28.714 14.5 28.714C15.3938 28.714 16.125 29.4426 16.125 30.3331C16.125 31.2236 15.3938 31.9521 14.5 31.9521ZM17.0188 24.6664H11.9812V23.0474C11.9812 21.6631 13.1106 20.5379 14.5 20.5379C15.8894 20.5379 17.0188 21.6631 17.0188 23.0474V24.6664Z" fill="#555C7A"/>
<ellipse cx="14.4997" cy="30.6873" rx="2.16667" ry="2.125" fill="#F8F9FA"/>
<rect x="0.5" y="0.5" width="47" height="47" rx="7.5" stroke="#E6E6ED"/>
</svg>
