<?xml version="1.0" standalone="no"?>
<!DOCTYPE svg PUBLIC "-//W3C//DTD SVG 1.1//EN" "http://www.w3.org/Graphics/SVG/1.1/DTD/svg11.dtd" >
<svg xmlns="http://www.w3.org/2000/svg">
<metadata>Generated by IcoMoon</metadata>
<defs>
<font id="icomoon" horiz-adv-x="1024">
<font-face units-per-em="1024" ascent="960" descent="-64" />
<missing-glyph horiz-adv-x="1024" />
<glyph unicode="&#x20;" horiz-adv-x="512" d="" />
<glyph unicode="&#xe900;" glyph-name="upload" horiz-adv-x="843" d="M240.941 176.941h361.412v361.412h240.941l-421.647 421.647-421.647-421.647h240.941v-361.412zM0 56.471h843.294v-120.471h-843.294v120.471z" />
<glyph unicode="&#xe901;" glyph-name="arrow-up" horiz-adv-x="1463" d="M1290.971 33.524l-559.543 558.324-559.543-558.324-171.886 171.886 731.429 731.429 731.429-731.429-171.886-171.886z" />
<glyph unicode="&#xe902;" glyph-name="check" horiz-adv-x="1365" d="M434.424 149.97l-325.818 320.956-108.606-106.985 434.424-427.941 930.909 917.015-108.604 106.985-822.305-810.030z" />
<glyph unicode="&#xe903;" d="M219.429 960h585.143c121.187 0 219.429-98.242 219.429-219.429v-585.143c0-121.187-98.242-219.429-219.429-219.429h-585.143c-121.187 0-219.429 98.242-219.429 219.429v585.143c0 121.187 98.242 219.429 219.429 219.429z" />
<glyph unicode="&#xe904;" d="M633.904 539.429v-304.761h-243.811v304.761h243.811zM588.189 722.286h-152.382l-30.475-30.476h-106.667v-60.953h426.667v60.953h-106.668l-30.475 30.476zM694.857 600.381h-365.716v-365.713c0-33.525 27.429-60.954 60.951-60.954h243.811c33.525 0 60.954 27.429 60.954 60.954v365.713z" />
<glyph unicode="&#xe905;" d="M170.667 949.333h682.667c88.366 0 160-71.634 160-160v-682.667c0-88.366-71.634-160-160-160h-682.667c-88.366 0-160 71.634-160 160v682.667c0 88.366 71.634 160 160 160z" />
<glyph unicode="&#xe906;" d="M768 704.004c0 23.565-19.102 42.668-42.667 42.668h-426.667c-23.565 0-42.667-19.103-42.667-42.668v-533.333c0-23.563 19.102-42.667 42.667-42.667h426.667c23.565 0 42.667 19.104 42.667 42.667v533.333z" />
<glyph unicode="&#xe907;" d="M512 533.333c35.36 0 64 28.64 64 64s-28.64 64-64 64c-35.36 0-64-28.64-64-64s28.64-64 64-64zM512 501.333c-42.72 0-128-21.44-128-64v-16c0-8.8 7.2-16 16-16h224c8.8 0 16 7.2 16 16v16c0 42.56-85.28 64-128 64z" />
<glyph unicode="&#xe908;" d="M362.677 341.333h298.667c11.782 0 21.333-9.551 21.333-21.333s-9.551-21.333-21.333-21.333h-298.667c-11.782 0-21.333 9.551-21.333 21.333s9.551 21.333 21.333 21.333z" />
<glyph unicode="&#xe909;" d="M362.667 255.996h298.667c11.782 0 21.333-9.551 21.333-21.333s-9.551-21.333-21.333-21.333h-298.667c-11.782 0-21.333 9.551-21.333 21.333s9.551 21.333 21.333 21.333z" />
<glyph unicode="&#xe90a;" d="M170.667 949.333h682.667c88.366 0 160-71.634 160-160v-682.667c0-88.366-71.634-160-160-160h-682.667c-88.366 0-160 71.634-160 160v682.667c0 88.366 71.634 160 160 160z" />
<glyph unicode="&#xe90b;" d="M170.667 949.333h682.667c88.366 0 160-71.634 160-160v-682.667c0-88.366-71.634-160-160-160h-682.667c-88.366 0-160 71.634-160 160v682.667c0 88.366 71.634 160 160 160z" />
<glyph unicode="&#xe90c;" d="M280.382 341.333h335.236c36.96 0 67.049 30.62 67.049 68.267v204.8c0 37.647-30.089 68.267-67.049 68.267h-335.236c-36.96 0-67.049-30.62-67.049-68.267v-204.8c0-37.647 30.089-68.267 67.049-68.267z" />
<glyph unicode="&#xe90d;" d="M554.667 341.333h106.667v-85.333l-106.667 85.333z" />
<glyph unicode="&#xe90e;" d="M344.382 277.333h335.236c36.96 0 67.049 30.62 67.049 68.267v204.8c0 37.647-30.089 68.267-67.049 68.267h-335.236c-36.96 0-67.049-30.62-67.049-68.267v-204.8c0-37.647 30.089-68.267 67.049-68.267z" />
<glyph unicode="&#xe90f;" d="M576 277.333h106.667v-85.333l-106.667 85.333z" />
<glyph unicode="&#xe910;" d="M384 533.333h256c11.782 0 21.333-9.551 21.333-21.333s-9.551-21.333-21.333-21.333h-256c-11.782 0-21.333 9.551-21.333 21.333s9.551 21.333 21.333 21.333z" />
<glyph unicode="&#xe911;" d="M448 448h192c11.782 0 21.333-9.551 21.333-21.333s-9.551-21.333-21.333-21.333h-192c-11.782 0-21.333 9.551-21.333 21.333s9.551 21.333 21.333 21.333z" />
<glyph unicode="&#xe912;" d="M170.667 949.333h682.667c88.366 0 160-71.634 160-160v-682.667c0-88.366-71.634-160-160-160h-682.667c-88.366 0-160 71.634-160 160v682.667c0 88.366 71.634 160 160 160z" />
<glyph unicode="&#xe913;" d="M170.667 949.333h682.667c88.366 0 160-71.634 160-160v-682.667c0-88.366-71.634-160-160-160h-682.667c-88.366 0-160 71.634-160 160v682.667c0 88.366 71.634 160 160 160z" />
<glyph unicode="&#xe914;" d="M405.333 554.667c117.821 0 213.333-95.513 213.333-213.333s-95.513-213.333-213.333-213.333c-117.821 0-213.333 95.513-213.333 213.333s95.513 213.333 213.333 213.333z" />
<glyph unicode="&#xe915;" d="M469.333 234.667c0-23.564-19.103-42.667-42.667-42.667s-42.667 19.103-42.667 42.667c0 23.564 19.103 42.667 42.667 42.667s42.667-19.103 42.667-42.667z" />
<glyph unicode="&#xe916;" d="M320 330.667c0-17.673-14.327-32-32-32s-32 14.327-32 32c0 17.673 14.327 32 32 32s32-14.327 32-32z" />
<glyph unicode="&#xe917;" d="M552.032 683.194c0-22.174 13.702-41.148 33.099-48.917-0.977-4.61-1.493-9.391-1.493-14.293 0-37.818 30.658-68.476 68.478-68.476 2.082 0 4.143 0.092 6.178 0.273 9.54-18.91 29.137-31.878 51.765-31.878 24.096 0 44.759 14.709 53.493 35.642 2.916-14.059 4.448-28.623 4.448-43.543 0-117.82-95.514-213.333-213.333-213.333s-213.333 95.514-213.333 213.333c0 117.82 95.514 213.333 213.333 213.333 5.897 0 11.735-0.239 17.51-0.708-12.267-9.645-20.145-24.619-20.145-41.431z" />
<glyph unicode="&#xe918;" d="M488.817 577.882c0-23.273-18.867-42.14-42.14-42.14s-42.14 18.867-42.14 42.14c0 23.273 18.867 42.14 42.14 42.14s42.14-18.867 42.14-42.14z" />
<glyph unicode="&#xe919;" d="M662.644 419.857c0-32.001-25.942-57.942-57.942-57.942s-57.942 25.942-57.942 57.942c0 32.001 25.942 57.942 57.942 57.942s57.942-25.942 57.942-57.942z" />
<glyph unicode="&#xe91a;" d="M582.347 635.526c-17.911 8.41-30.315 26.611-30.315 47.708 0 11.881 3.934 22.842 10.569 31.654h-0.028c-23.275 0-42.14-18.867-42.14-42.14 0-23.275 18.865-42.14 42.14-42.14 7.147 0 13.877 1.779 19.774 4.917z" />
<glyph unicode="&#xe91b;" d="M494.090 414.562c0-17.455-14.15-31.605-31.605-31.605s-31.605 14.15-31.605 31.605c0 17.455 14.15 31.605 31.605 31.605s31.605-14.15 31.605-31.605z" />
<glyph unicode="&#xe91c;" d="M170.667 949.333h682.667c88.366 0 160-71.634 160-160v-682.667c0-88.366-71.634-160-160-160h-682.667c-88.366 0-160 71.634-160 160v682.667c0 88.366 71.634 160 160 160z" />
<glyph unicode="&#xe91d;" d="M170.667 949.333h682.667c88.366 0 160-71.634 160-160v-682.667c0-88.366-71.634-160-160-160h-682.667c-88.366 0-160 71.634-160 160v682.667c0 88.366 71.634 160 160 160z" />
<glyph unicode="&#xe91e;" d="M768 725.338c0 23.565-19.102 42.668-42.667 42.668h-426.667c-23.565 0-42.667-19.103-42.667-42.668v-533.333c0-23.563 19.102-42.667 42.667-42.667h426.667c23.565 0 42.667 19.104 42.667 42.667v533.333z" />
<glyph unicode="&#xe91f;" d="M554.677 789.338c0 23.564-19.102 42.667-42.667 42.667s-42.667-19.103-42.667-42.667h-64.011c-11.782 0-21.333-9.551-21.333-21.333v-21.333c0-11.781 9.551-21.334 21.333-21.334h213.333c11.782 0 21.333 9.553 21.333 21.334v21.333c0 11.782-9.551 21.333-21.333 21.333h-63.989z" />
<glyph unicode="&#xe920;" d="M362.677 661.338h298.667c11.782 0 21.333-9.551 21.333-21.333s-9.551-21.333-21.333-21.333h-298.667c-11.782 0-21.333 9.551-21.333 21.333s9.551 21.333 21.333 21.333z" />
<glyph unicode="&#xe921;" d="M426.667 576.004h234.667c11.782 0 21.333-9.551 21.333-21.333s-9.551-21.333-21.333-21.333h-234.667c-11.782 0-21.333 9.551-21.333 21.333s9.551 21.333 21.333 21.333z" />
<glyph unicode="&#xe922;" d="M490.667 490.671h170.667c11.782 0 21.333-9.551 21.333-21.333s-9.551-21.333-21.333-21.333h-170.667c-11.782 0-21.333 9.551-21.333 21.333s9.551 21.333 21.333 21.333z" />
<glyph unicode="&#xe923;" d="M490.667 405.338h170.667c11.782 0 21.333-9.551 21.333-21.333s-9.551-21.333-21.333-21.333h-170.667c-11.782 0-21.333 9.551-21.333 21.333s9.551 21.333 21.333 21.333z" />
<glyph unicode="&#xe924;" d="M490.667 320.004h170.667c11.782 0 21.333-9.551 21.333-21.333s-9.551-21.333-21.333-21.333h-170.667c-11.782 0-21.333 9.551-21.333 21.333s9.551 21.333 21.333 21.333z" />
<glyph unicode="&#xe925;" d="M413.333 433.783h-17.333v34.539c0 47.665-38.827 86.349-86.667 86.349s-86.667-38.684-86.667-86.349v-34.539h-17.333c-19.067 0-34.667-15.543-34.667-34.541v-172.698c0-18.997 15.6-34.541 34.667-34.541h208c19.068 0 34.667 15.543 34.667 34.541v172.698c0 18.997-15.599 34.541-34.667 34.541zM309.333 278.355c-19.066 0-34.667 15.541-34.667 34.539s15.601 34.541 34.667 34.541c19.068 0 34.667-15.543 34.667-34.541s-15.599-34.539-34.667-34.539zM363.068 433.783h-107.469v34.539c0 29.532 24.094 53.536 53.734 53.536s53.734-24.004 53.734-53.536v-34.539z" />
<glyph unicode="&#xe926;" d="M355.549 305.338c0-25.037-20.694-45.333-46.222-45.333s-46.222 20.296-46.222 45.333c0 25.037 20.694 45.333 46.222 45.333s46.222-20.296 46.222-45.333z" />
<glyph unicode="&#xe927;" d="M170.667 949.333h682.667c88.366 0 160-71.634 160-160v-682.667c0-88.366-71.634-160-160-160h-682.667c-88.366 0-160 71.634-160 160v682.667c0 88.366 71.634 160 160 160z" />
<glyph unicode="&#xe928;" d="M170.667 949.333h682.667c88.366 0 160-71.634 160-160v-682.667c0-88.366-71.634-160-160-160h-682.667c-88.366 0-160 71.634-160 160v682.667c0 88.366 71.634 160 160 160z" />
<glyph unicode="&#xe929;" d="M768 725.338c0 23.565-19.102 42.668-42.667 42.668h-426.667c-23.565 0-42.667-19.103-42.667-42.668v-533.333c0-23.563 19.102-42.667 42.667-42.667h426.667c23.565 0 42.667 19.104 42.667 42.667v533.333z" />
<glyph unicode="&#xe92a;" d="M554.677 789.338c0 23.564-19.102 42.667-42.667 42.667s-42.667-19.103-42.667-42.667h-64.011c-11.782 0-21.333-9.551-21.333-21.333v-21.333c0-11.781 9.551-21.334 21.333-21.334h213.333c11.782 0 21.333 9.553 21.333 21.334v21.333c0 11.782-9.551 21.333-21.333 21.333h-63.989z" />
<glyph unicode="&#xe92b;" d="M362.677 661.338h298.667c11.782 0 21.333-9.551 21.333-21.333s-9.551-21.333-21.333-21.333h-298.667c-11.782 0-21.333 9.551-21.333 21.333s9.551 21.333 21.333 21.333z" />
<glyph unicode="&#xe92c;" d="M448 576.004h213.333c11.782 0 21.333-9.551 21.333-21.333s-9.551-21.333-21.333-21.333h-213.333c-11.782 0-21.333 9.551-21.333 21.333s9.551 21.333 21.333 21.333z" />
<glyph unicode="&#xe92d;" d="M533.333 490.671h128c11.782 0 21.333-9.551 21.333-21.333s-9.551-21.333-21.333-21.333h-128c-11.782 0-21.333 9.551-21.333 21.333s9.551 21.333 21.333 21.333z" />
<glyph unicode="&#xe92e;" d="M512 405.338h149.333c11.782 0 21.333-9.551 21.333-21.333s-9.551-21.333-21.333-21.333h-149.333c-11.782 0-21.333 9.551-21.333 21.333s9.551 21.333 21.333 21.333z" />
<glyph unicode="&#xe92f;" d="M490.667 320.004h170.667c11.782 0 21.333-9.551 21.333-21.333s-9.551-21.333-21.333-21.333h-170.667c-11.782 0-21.333 9.551-21.333 21.333s9.551 21.333 21.333 21.333z" />
<glyph unicode="&#xe930;" d="M320 554.667l-149.333-66.197v-76.542c0-91.851 63.716-177.741 149.333-198.594 85.617 20.853 149.333 106.743 149.333 198.594v76.542l-149.333 66.197z" />
<glyph unicode="&#xe931;" d="M416.919 457.645c-5.894 7.377-16.047 8.041-22.677 1.485l-86.249-85.284-42.963 38.234c-6.927 6.165-17.037 4.915-22.577-2.79-5.542-7.706-4.42-18.95 2.509-25.116l64.122-57.062 106.502 105.31c6.63 6.556 7.228 17.85 1.333 25.225z" />
<glyph unicode="&#xe932;" d="M170.667 949.333h682.667c88.366 0 160-71.634 160-160v-682.667c0-88.366-71.634-160-160-160h-682.667c-88.366 0-160 71.634-160 160v682.667c0 88.366 71.634 160 160 160z" />
<glyph unicode="&#xe933;" d="M170.667 949.333h682.667c88.366 0 160-71.634 160-160v-682.667c0-88.366-71.634-160-160-160h-682.667c-88.366 0-160 71.634-160 160v682.667c0 88.366 71.634 160 160 160z" />
<glyph unicode="&#xe934;" d="M853.295 789.273v-639.964c0-23.563-19.102-42.667-42.667-42.667h-426.639c-23.565 0-42.667 19.104-42.667 42.667v597.297c0 23.564 19.102 42.666 42.667 42.666h469.306zM685.489 789.26l167.806-167.807v167.821l-167.806-0.014z" />
<glyph unicode="&#xe935;" d="M685.5 789.333l167.806-167.806h-125.139c-23.565 0-42.667 19.102-42.667 42.667v125.139z" />
<glyph unicode="&#xe936;" d="M448.011 576h298.667c11.782 0 21.333-9.551 21.333-21.333s-9.551-21.333-21.333-21.333h-298.667c-11.782 0-21.333 9.551-21.333 21.333s9.551 21.333 21.333 21.333z" />
<glyph unicode="&#xe937;" d="M554.667 490.667h192c11.782 0 21.333-9.551 21.333-21.333s-9.551-21.333-21.333-21.333h-192c-11.782 0-21.333 9.551-21.333 21.333s9.551 21.333 21.333 21.333z" />
<glyph unicode="&#xe938;" d="M576 405.333h170.667c11.782 0 21.333-9.551 21.333-21.333s-9.551-21.333-21.333-21.333h-170.667c-11.782 0-21.333 9.551-21.333 21.333s9.551 21.333 21.333 21.333z" />
<glyph unicode="&#xe939;" d="M576 320h170.667c11.782 0 21.333-9.551 21.333-21.333s-9.551-21.333-21.333-21.333h-170.667c-11.782 0-21.333 9.551-21.333 21.333s9.551 21.333 21.333 21.333z" />
<glyph unicode="&#xe93a;" d="M219.428 149.333h243.81c26.878 0 48.762 22.965 48.762 51.2v153.6c0 28.235-21.884 51.2-48.762 51.2h-243.81c-26.879 0-48.762-22.965-48.762-51.2v-153.6c0-28.235 21.883-51.2 48.762-51.2z" />
<glyph unicode="&#xe93b;" d="M341.333 362.667c-11.791 0-21.333 11.462-21.333 25.6v76.8c0 14.138 9.542 25.6 21.333 25.6s21.333-11.462 21.333-25.6v-76.8c0-14.138-9.542-25.6-21.333-25.6z" />
<glyph unicode="&#xe93c;" d="M341.333 426.667c-23.52 0-42.667 19.138-42.667 42.667s19.147 42.667 42.667 42.667c23.52 0 42.667-19.138 42.667-42.667s-19.147-42.667-42.667-42.667z" />
<glyph unicode="&#xe93d;" d="M320 298.667c0-23.567-19.106-42.667-42.667-42.667-23.567 0-42.667 19.1-42.667 42.667s19.1 42.667 42.667 42.667c23.563 0 42.667-19.1 42.667-42.667z" />
<glyph unicode="&#xe93e;" d="M448 298.667c0-23.567-19.1-42.667-42.667-42.667-23.563 0-42.667 19.1-42.667 42.667s19.106 42.667 42.667 42.667c23.567 0 42.667-19.1 42.667-42.667z" />
<glyph unicode="&#xe93f;" d="M170.667 949.333h682.667c88.366 0 160-71.634 160-160v-682.667c0-88.366-71.634-160-160-160h-682.667c-88.366 0-160 71.634-160 160v682.667c0 88.366 71.634 160 160 160z" />
<glyph unicode="&#xe940;" d="M170.667 949.333h682.667c88.366 0 160-71.634 160-160v-682.667c0-88.366-71.634-160-160-160h-682.667c-88.366 0-160 71.634-160 160v682.667c0 88.366 71.634 160 160 160z" />
<glyph unicode="&#xe941;" d="M853.295 789.271v-639.963c0-23.563-19.102-42.667-42.667-42.667h-426.639c-23.565 0-42.667 19.104-42.667 42.667v597.297c0 23.564 19.102 42.666 42.667 42.666h469.306zM685.489 789.257l167.806-167.806v167.82l-167.806-0.014z" />
<glyph unicode="&#xe942;" d="M448.011 554.667h298.667c11.782 0 21.333-9.551 21.333-21.333s-9.551-21.333-21.333-21.333h-298.667c-11.782 0-21.333 9.551-21.333 21.333s9.551 21.333 21.333 21.333z" />
<glyph unicode="&#xe943;" d="M448.011 469.333h298.667c11.782 0 21.333-9.551 21.333-21.333s-9.551-21.333-21.333-21.333h-298.667c-11.782 0-21.333 9.551-21.333 21.333s9.551 21.333 21.333 21.333z" />
<glyph unicode="&#xe944;" d="M448.011 384h298.667c11.782 0 21.333-9.551 21.333-21.333s-9.551-21.333-21.333-21.333h-298.667c-11.782 0-21.333 9.551-21.333 21.333s9.551 21.333 21.333 21.333z" />
<glyph unicode="&#xe945;" d="M685.5 789.333l167.806-167.806h-125.139c-23.565 0-42.667 19.102-42.667 42.667v125.139z" />
<glyph unicode="&#xe946;" d="M213.333 448h426.639c23.564 0 42.667-19.103 42.667-42.667v-170.667c0-23.564-19.103-42.667-42.667-42.667h-426.639c-23.564 0-42.667 19.103-42.667 42.667v170.667c0 23.564 19.103 42.667 42.667 42.667z" />
<glyph unicode="&#xe947;" d="M213.333 383.166v22.167h127.049v-22.167h-51.221v-148.499h-24.687v148.499h-51.14z" />
<glyph unicode="&#xe948;" d="M386.818 405.333l39.277-66.75h1.282l39.277 66.75h28.698l-51.14-85.333 51.46-85.333h-28.855l-39.439 65.833h-1.282l-39.437-65.833h-28.855l52.341 85.333-52.021 85.333h28.695z" />
<glyph unicode="&#xe949;" d="M512.951 383.166v22.167h127.049v-22.167h-51.219v-148.499h-24.689v148.499h-51.14z" />
<glyph unicode="&#xe94a;" d="M170.667 949.333h682.667c88.366 0 160-71.634 160-160v-682.667c0-88.366-71.634-160-160-160h-682.667c-88.366 0-160 71.634-160 160v682.667c0 88.366 71.634 160 160 160z" />
<glyph unicode="&#xe94b;" glyph-name="cross" d="M1024 856.869l-103.131 103.131-408.869-408.869-408.869 408.869-103.131-103.131 408.869-408.869-408.869-408.869 103.131-103.131 408.869 408.869 408.869-408.869 103.131 103.131-408.869 408.869 408.869 408.869z" />
<glyph unicode="&#xe94c;" glyph-name="arrow-down" horiz-adv-x="1463" d="M171.886 936.839l559.543-558.324 559.543 558.324 171.886-171.886-731.429-731.427-731.429 731.427 171.886 171.886z" />
<glyph unicode="&#xe94d;" glyph-name="search" d="M698.669 341.333h-42.138l-14.931 14.4c52.269 60.8 83.731 139.734 83.731 225.6 0 191.467-155.198 346.667-346.664 346.667s-346.667-155.2-346.667-346.667c0-191.466 155.2-346.664 346.667-346.664 85.866 0 164.8 31.462 225.6 83.731l14.4-14.931v-42.138l266.664-266.131 79.469 79.469-266.131 266.664zM378.667 341.333c-132.8 0-240 107.2-240 240s107.2 240 240 240c132.8 0 240-107.2 240-240s-107.2-240-240-240z" />
<glyph unicode="&#xe94e;" glyph-name="double-arrow-left" d="M802.975 643.84l-195.415-195.84 195.415-195.84-60.16-60.16-255.999 256 255.999 256 60.16-60.16zM529.5 643.84l-195.414-195.84 195.414-195.84-60.16-60.16-256 256 256 256 60.16-60.16z" />
<glyph unicode="&#xe94f;" glyph-name="arrow-left" horiz-adv-x="717" d="M700.57 56.32l-390.826 391.68 390.826 391.68-120.32 120.32-512-512 512-512 120.32 120.32z" />
<glyph unicode="&#xe950;" glyph-name="double-arrow-right" d="M213.325 252.16l195.414 195.84-195.414 195.84 60.16 60.16 256-256-256-256-60.16 60.16zM486.825 252.16l195.415 195.84-195.415 195.84 60.16 60.16 256-256-256-256-60.16 60.16z" />
<glyph unicode="&#xe951;" glyph-name="arrow-right" horiz-adv-x="652" d="M14.727 82.609l355.297 356.073-355.297 356.073 109.382 109.382 465.455-465.455-465.455-465.455-109.382 109.382z" />
<glyph unicode="&#xe952;" glyph-name="link" horiz-adv-x="2048" d="M1498.055 910.694h-379.259v-189.63h379.259c156.444 0 284.444-128 284.444-284.444s-128-284.444-284.444-284.444h-379.259v-189.629h379.259c261.689 0 474.078 212.384 474.078 474.073s-212.389 474.074-474.078 474.074zM929.166 152.176h-379.259c-156.444 0-284.444 128-284.444 284.444s128 284.444 284.444 284.444h379.259v189.63h-379.259c-261.689 0-474.074-212.386-474.074-474.074s212.385-474.073 474.074-474.073h379.259v189.629zM644.722 531.436h758.522v-189.63h-758.522v189.63z" />
<glyph unicode="&#xe953;" glyph-name="plus" d="M1009.766 376.882h-426.669v-426.666h-142.223v426.666h-426.666v142.222h426.666v426.667h142.223v-426.667h426.669v-142.222z" />
<glyph unicode="&#xe954;" glyph-name="filter" horiz-adv-x="1536" d="M597.333-64h341.333v170.667h-341.333v-170.667zM0 960v-170.667h1536v170.667h-1536zM256 362.667h1024v170.667h-1024v-170.667z" />
<glyph unicode="&#xe955;" glyph-name="image" d="M259.562 960h504.874c39.506 0 70.922 0 96.266-2.286 25.958-2.342 48.087-7.24 68.352-18.641 32.722-18.408 59.32-47.78 75.991-83.907 10.327-22.376 14.761-46.813 16.886-75.472 2.068-27.987 2.068-62.675 2.068-106.293v-385.339c0-0.041 0-0.082 0-0.123v-65.341c0-43.617 0-78.305-2.068-106.291-2.125-28.657-6.559-53.094-16.886-75.474-16.671-36.127-43.269-65.495-75.991-83.907-20.265-11.402-42.394-16.297-68.352-18.637-25.344-2.289-56.765-2.289-96.266-2.289h-504.872c-39.504 0-70.921 0-96.268 2.289-25.955 2.34-48.088 7.235-68.353 18.637-32.719 18.412-59.32 47.78-75.991 83.907-10.326 22.38-14.761 46.817-16.882 75.474-2.071 27.986-2.071 62.674-2.070 106.296v450.798c0 43.617 0 78.306 2.070 106.293 2.121 28.659 6.557 53.096 16.882 75.472 16.671 36.127 43.272 65.5 75.991 83.907 20.265 11.401 42.397 16.299 68.353 18.641 25.347 2.287 56.763 2.286 96.266 2.286zM966.036 365.256v306.744c0 45.332-0.020 77.407-1.879 102.482-1.828 24.701-5.289 39.779-10.757 51.629-11.11 24.084-28.846 43.666-50.657 55.938-10.732 6.038-24.387 9.859-46.761 11.877-22.707 2.049-51.758 2.074-92.81 2.074h-502.342c-41.056 0-70.105-0.025-92.814-2.074-22.371-2.018-36.026-5.84-46.758-11.877-21.812-12.272-39.546-31.854-50.661-55.938-5.468-11.85-8.929-26.928-10.757-51.629-1.855-25.075-1.878-57.149-1.878-102.482v-448c0-45.332 0.023-77.409 1.878-102.482 1.828-24.699 5.289-39.777 10.757-51.63 11.114-24.084 28.849-43.663 50.661-55.936 1.087-0.614 2.204-1.203 3.357-1.766l313.004 345.605c8.914 9.846 16.803 18.555 23.876 25.185 7.532 7.060 16.022 13.619 26.623 17.423 15.522 5.571 32.243 5.571 47.761 0 10.604-3.804 19.092-10.363 26.624-17.423 7.076-6.63 14.966-15.34 23.88-25.185l22.221-24.535 118.825 131.205c8.914 9.843 16.804 18.554 23.875 25.184 7.532 7.060 16.026 13.618 26.624 17.421 15.524 5.569 32.246 5.569 47.764 0 10.604-3.804 19.092-10.361 26.624-17.421 7.071-6.629 14.961-15.341 23.875-25.184l89.846-99.205zM649.59 288l118.067 130.365c9.902 10.936 16.113 17.756 21.161 22.487 4.792 4.49 6.595 5.192 7.025 5.345 3.881 1.393 8.059 1.393 11.94 0 0.425-0.154 2.232-0.855 7.025-5.345 5.048-4.731 11.259-11.551 21.161-22.487l130.068-143.621v-50.744c0-45.332-0.020-77.409-1.879-102.482-1.828-24.699-5.289-39.777-10.757-51.63-11.11-24.084-28.846-43.663-50.657-55.936-1.091-0.614-2.207-1.203-3.359-1.766l-249.795 275.814zM546.156 311.7c-9.902 10.931-16.113 17.756-21.161 22.487-4.792 4.49-6.6 5.192-7.025 5.345-3.881 1.393-8.060 1.393-11.94 0-0.426-0.154-2.233-0.855-7.023-5.345-5.048-4.731-11.258-11.556-21.161-22.487l-281.812-311.168c17.768-0.522 38.893-0.532 64.797-0.532h502.342c25.902 0 47.027 0.010 64.794 0.532l-281.81 311.168zM318.793 682.666c-37.347 0-67.623-33.429-67.623-74.666s30.276-74.666 67.623-74.666c37.347 0 67.622 33.429 67.622 74.666s-30.276 74.666-67.622 74.666zM193.208 608c0 76.583 56.226 138.666 125.585 138.666s125.585-62.083 125.585-138.666c0-76.583-56.226-138.666-125.585-138.666s-125.585 62.083-125.585 138.666z" />
<glyph unicode="&#xe956;" glyph-name="theme" horiz-adv-x="922" d="M655.375 578.56l-381.438 381.44-60.16-60.16 101.546-101.546-219.734-219.734c-25.173-25.174-25.173-65.706 0-90.454l234.667-234.666c12.373-12.375 29.013-18.775 45.226-18.775s32.854 6.4 45.226 18.775l234.665 234.666c25.175 24.747 25.175 65.28 0 90.454zM171.11 533.334l204.374 204.373 204.372-204.373h-408.745zM759.485 469.334c0 0-85.335-92.589-85.335-149.334 0-46.935 38.4-85.335 85.335-85.335 46.93 0 85.33 38.4 85.33 85.335 0 56.745-85.33 149.334-85.33 149.334zM34.15 106.665h853.335v-170.665h-853.335v170.665z" />
<glyph unicode="&#xe957;" glyph-name="domen" d="M511.52 928c-264.96 0-479.52-215.040-479.52-480s214.56-480 479.52-480c265.44 0 480.48 215.040 480.48 480s-215.040 480-480.48 480zM844.16 640h-141.6c-15.36 60-37.44 117.6-66.24 170.88 88.32-30.24 161.76-91.68 207.84-170.88zM512 830.080c39.84-57.6 71.040-121.44 91.68-190.080h-183.36c20.64 68.64 51.84 132.48 91.68 190.080zM140.48 352c-7.68 30.72-12.48 62.88-12.48 96s4.8 65.28 12.48 96h162.24c-3.84-31.68-6.72-63.36-6.72-96s2.88-64.32 6.72-96h-162.24zM179.84 256h141.6c15.36-60 37.44-117.6 66.24-170.88-88.32 30.24-161.76 91.2-207.84 170.88zM321.44 640h-141.6c46.080 79.68 119.52 140.64 207.84 170.88-28.8-53.28-50.88-110.88-66.24-170.88zM512 65.92c-39.84 57.6-71.040 121.44-91.68 190.080h183.36c-20.64-68.64-51.84-132.48-91.68-190.080zM624.32 352h-224.64c-4.32 31.68-7.68 63.36-7.68 96s3.36 64.8 7.68 96h224.64c4.32-31.2 7.68-63.36 7.68-96s-3.36-64.32-7.68-96zM636.32 85.12c28.8 53.28 50.88 110.88 66.24 170.88h141.6c-46.080-79.2-119.52-140.64-207.84-170.88zM721.28 352c3.84 31.68 6.72 63.36 6.72 96s-2.88 64.32-6.72 96h162.24c7.68-30.72 12.48-62.88 12.48-96s-4.8-65.28-12.48-96h-162.24z" />
<glyph unicode="&#xe958;" glyph-name="settings" d="M855.648 400.96c1.92 15.36 3.36 30.72 3.36 47.040s-1.44 31.68-3.36 47.040l101.28 79.2c9.12 7.2 11.52 20.16 5.76 30.72l-96 166.080c-4.32 7.68-12.48 12-21.12 12-2.88 0-5.76-0.48-8.16-1.44l-119.52-48c-24.96 19.2-51.84 35.040-81.12 47.040l-18.24 127.2c-1.44 11.52-11.52 20.16-23.52 20.16h-192c-12 0-22.080-8.64-23.52-20.16l-18.24-127.2c-29.28-12-56.16-28.32-81.12-47.040l-119.52 48c-2.88 0.96-5.76 1.44-8.64 1.44-8.16 0-16.32-4.32-20.64-12l-96-166.080c-6.24-10.56-3.36-23.52 5.76-30.72l101.28-79.2c-1.92-15.36-3.36-31.2-3.36-47.040s1.44-31.68 3.36-47.040l-101.28-79.2c-9.12-7.2-11.52-20.16-5.76-30.72l96-166.080c4.32-7.68 12.48-12 21.12-12 2.88 0 5.76 0.48 8.16 1.44l119.52 48c24.96-19.2 51.84-35.040 81.12-47.040l18.24-127.2c1.44-11.52 11.52-20.16 23.52-20.16h192c12 0 22.080 8.64 23.52 20.16l18.24 127.2c29.28 12 56.16 28.32 81.12 47.040l119.52-48c2.88-0.96 5.76-1.44 8.64-1.44 8.16 0 16.32 4.32 20.64 12l96 166.080c5.76 10.56 3.36 23.52-5.76 30.72l-101.28 79.2zM760.608 483.040c1.92-14.88 2.4-24.96 2.4-35.040s-0.96-20.64-2.4-35.040l-6.72-54.24 42.72-33.6 51.84-40.32-33.6-58.080-60.96 24.48-49.92 20.16-43.2-32.64c-20.64-15.36-40.32-26.88-60-35.040l-50.88-20.64-7.68-54.24-9.6-64.8h-67.2l-9.12 64.8-7.68 54.24-50.88 20.64c-20.64 8.64-39.84 19.68-59.040 34.080l-43.68 33.6-50.88-20.64-60.96-24.48-33.6 58.080 51.84 40.32 42.72 33.6-6.72 54.24c-1.44 14.88-2.4 25.92-2.4 35.52s0.96 20.64 2.4 35.040l6.72 54.24-42.72 33.6-51.84 40.32 33.6 58.080 60.96-24.48 49.92-20.16 43.2 32.64c20.64 15.36 40.32 26.88 60 35.040l50.88 20.64 7.68 54.24 9.6 64.8h66.72l9.12-64.8 7.68-54.24 50.88-20.64c20.64-8.64 39.84-19.68 59.040-34.080l43.68-33.6 50.88 20.64 60.96 24.48 33.6-58.080-51.36-40.8-42.72-33.6 6.72-54.24zM499.008 640c-106.080 0-192-85.92-192-192s85.92-192 192-192c106.080 0 192 85.92 192 192s-85.92 192-192 192zM499.008 352c-52.8 0-96 43.2-96 96s43.2 96 96 96c52.8 0 96-43.2 96-96s-43.2-96-96-96z" />
<glyph unicode="&#xe959;" glyph-name="user" d="M511.976 448.006c134.705 0 243.809 109.105 243.809 243.809s-109.104 243.81-243.809 243.81c-134.704 0-243.809-109.105-243.809-243.81s109.105-243.809 243.809-243.809zM511.976 326.102c-162.743 0-487.619-81.676-487.619-243.809v-121.907h975.235v121.907c0 162.132-324.874 243.809-487.616 243.809z" />
<glyph unicode="&#xe95a;" glyph-name="bell" horiz-adv-x="843" d="M421.627-23.841c55.216 0 100.392 45.176 100.392 100.394h-200.784c0-55.218 44.674-100.394 100.392-100.394zM722.805 277.335v250.984c0 154.102-82.324 283.105-225.884 317.239v109.428h-150.588v-109.428c-144.062-34.134-225.882-162.635-225.882-317.239v-250.984l-100.392-100.388v-50.2h803.135v50.2l-100.388 100.388z" />
<glyph unicode="&#xe95b;" glyph-name="logo" horiz-adv-x="896" d="M613.443 865.461l-165.443 94.539-448-256v-512l166.4-95.085v510.518l12.573 7.187 434.47 250.84zM834.122 739.359l-386.762-223.295v-189.59l282.24 161.28v-199.187l-281.6-160.915v-191.651l448 256v512l-61.878 35.359z" />
</font>
</defs>
</svg>
